<?xml version="1.0" standalone="no"?>
<!DOCTYPE svg PUBLIC "-//W3C//DTD SVG 20010904//EN"
 "http://www.w3.org/TR/2001/REC-SVG-20010904/DTD/svg10.dtd">
<svg version="1.0" xmlns="http://www.w3.org/2000/svg"
 width="32.000000pt" height="32.000000pt" viewBox="0 0 32.000000 32.000000"
 preserveAspectRatio="xMidYMid meet">

<g transform="translate(0.000000,32.000000) scale(0.100000,-0.100000)"
fill="#000000" stroke="none">
<path d="M205 270 c-4 -6 5 -10 19 -10 33 0 66 -33 66 -66 0 -14 4 -23 10 -19
18 11 10 56 -15 80 -24 25 -69 33 -80 15z"/>
<path d="M70 213 c-44 -37 -64 -84 -49 -117 13 -27 73 -56 117 -56 38 1 108
34 122 59 11 22 -1 61 -20 61 -5 0 -10 10 -12 23 -3 19 -9 22 -39 20 -29 -2
-36 1 -35 15 2 29 -47 27 -84 -5z m132 -60 c42 -38 -3 -93 -76 -93 -76 0 -110
47 -64 90 28 26 112 28 140 3z"/>
<path d="M92 138 c-22 -22 -15 -57 14 -64 35 -9 74 27 58 54 -14 21 -55 27
-72 10z m28 -33 c0 -8 -7 -15 -15 -15 -16 0 -20 12 -8 23 11 12 23 8 23 -8z"/>
<path d="M232 223 c9 -2 19 -12 21 -21 3 -12 5 -10 6 6 1 17 -4 22 -21 21 -16
-1 -18 -3 -6 -6z"/>
</g>
</svg>
